<?xml version="1.0" encoding="UTF-8" standalone="no"?>
<svg
   xmlns:dc="http://purl.org/dc/elements/1.1/"
   xmlns:cc="http://creativecommons.org/ns#"
   xmlns:rdf="http://www.w3.org/1999/02/22-rdf-syntax-ns#"
   xmlns:svg="http://www.w3.org/2000/svg"
   xmlns="http://www.w3.org/2000/svg"
   xmlns:sodipodi="http://sodipodi.sourceforge.net/DTD/sodipodi-0.dtd"
   xmlns:inkscape="http://www.inkscape.org/namespaces/inkscape"
   version="1.1"
   id="Layer_2"
   x="0px"
   y="0px"
   width="400.667px"
   height="400.666px"
   viewBox="0 0 400.667 400.666"
   enable-background="new 0 0 400.667 400.666"
   xml:space="preserve"
   sodipodi:docname="vertical_mechanics.svg"
   inkscape:version="0.92.3 (2405546, 2018-03-11)"><metadata
   id="metadata5699"><rdf:RDF><cc:Work
       rdf:about=""><dc:format>image/svg+xml</dc:format><dc:type
         rdf:resource="http://purl.org/dc/dcmitype/StillImage" /></cc:Work></rdf:RDF></metadata><defs
   id="defs5697" /><sodipodi:namedview
   pagecolor="#ffffff"
   bordercolor="#666666"
   borderopacity="1"
   objecttolerance="10"
   gridtolerance="10"
   guidetolerance="10"
   inkscape:pageopacity="0"
   inkscape:pageshadow="2"
   inkscape:window-width="1920"
   inkscape:window-height="1001"
   id="namedview5695"
   showgrid="false"
   inkscape:zoom="1.4142136"
   inkscape:cx="110.8421"
   inkscape:cy="211.55315"
   inkscape:window-x="-9"
   inkscape:window-y="-9"
   inkscape:window-maximized="1"
   inkscape:current-layer="Layer_2" />
<filter
   filterUnits="objectBoundingBox"
   id="AI_Shadow_1">
	<feGaussianBlur
   stdDeviation="5"
   result="blur"
   in="SourceAlpha"
   id="feGaussianBlur5535" />
	<feOffset
   dy="0"
   dx="0"
   result="offsetBlurredAlpha"
   in="blur"
   id="feOffset5537" />
	<feMerge
   id="feMerge5543">
		<feMergeNode
   in="offsetBlurredAlpha"
   id="feMergeNode5539" />
		<feMergeNode
   in="SourceGraphic"
   id="feMergeNode5541" />
	</feMerge>
</filter>
<circle
   cx="200.333"
   cy="200"
   r="161"
   id="circle5546"
   fill="#232323" />
<line
   fill="none"
   stroke="#FFFFFF"
   stroke-width="4"
   stroke-miterlimit="10"
   x1="50.234"
   y1="200"
   x2="73.667"
   y2="200"
   id="line5548" />
<line
   fill="none"
   stroke="#FFFFFF"
   stroke-width="4"
   stroke-miterlimit="10"
   x1="94.197"
   y1="93.864"
   x2="110.767"
   y2="110.434"
   id="line5550" />
<line
   fill="none"
   stroke="#FFFFFF"
   stroke-width="4"
   stroke-miterlimit="10"
   x1="200.333"
   y1="49.902"
   x2="200.333"
   y2="73.334"
   id="line5552" />
<line
   fill="none"
   stroke="#FFFFFF"
   stroke-width="4"
   stroke-miterlimit="10"
   x1="306.468"
   y1="93.865"
   x2="289.9"
   y2="110.434"
   id="line5554" />
<line
   fill="none"
   stroke="#FFFFFF"
   stroke-width="4"
   stroke-miterlimit="10"
   x1="348.583"
   y1="223.481"
   x2="325.44"
   y2="219.814"
   id="line5556" />
<line
   fill="none"
   stroke="#FFFFFF"
   stroke-width="4"
   stroke-miterlimit="10"
   x1="348.583"
   y1="176.521"
   x2="325.44"
   y2="180.185"
   id="line5558" />
<line
   fill="none"
   stroke="#FFFFFF"
   stroke-width="4"
   stroke-miterlimit="10"
   x1="306.467"
   y1="306.137"
   x2="289.9"
   y2="289.566"
   id="line5560" />
<line
   fill="none"
   stroke="#FFFFFF"
   stroke-width="4"
   stroke-miterlimit="10"
   x1="200.332"
   y1="350.1"
   x2="200.333"
   y2="326.666"
   id="line5562" />
<line
   fill="none"
   stroke="#FFFFFF"
   stroke-width="4"
   stroke-miterlimit="10"
   x1="94.196"
   y1="306.137"
   x2="110.767"
   y2="289.566"
   id="line5564" />
<line
   fill="none"
   stroke="#FFFFFF"
   stroke-width="2"
   stroke-miterlimit="10"
   x1="50.697"
   y1="188.224"
   x2="66.627"
   y2="189.477"
   id="line5566" />
<line
   fill="none"
   stroke="#FFFFFF"
   stroke-width="2"
   stroke-miterlimit="10"
   x1="52.082"
   y1="176.52"
   x2="67.865"
   y2="179.019"
   id="line5568" />
<line
   fill="none"
   stroke="#FFFFFF"
   stroke-width="2"
   stroke-miterlimit="10"
   x1="54.381"
   y1="164.96"
   x2="69.919"
   y2="168.689"
   id="line5570" />
<line
   fill="none"
   stroke="#FFFFFF"
   stroke-width="2"
   stroke-miterlimit="10"
   x1="57.581"
   y1="153.616"
   x2="72.777"
   y2="158.554"
   id="line5572" />
<line
   fill="none"
   stroke="#FFFFFF"
   stroke-width="2"
   stroke-miterlimit="10"
   x1="61.66"
   y1="142.559"
   x2="76.422"
   y2="148.674"
   id="line5574" />
<line
   fill="none"
   stroke="#FFFFFF"
   stroke-width="2"
   stroke-miterlimit="10"
   x1="66.594"
   y1="131.855"
   x2="80.831"
   y2="139.11"
   id="line5576" />
<line
   fill="none"
   stroke="#FFFFFF"
   stroke-width="2"
   stroke-miterlimit="10"
   x1="72.353"
   y1="121.572"
   x2="85.977"
   y2="129.922"
   id="line5578" />
<line
   fill="none"
   stroke="#FFFFFF"
   stroke-width="2"
   stroke-miterlimit="10"
   x1="78.9"
   y1="111.772"
   x2="91.827"
   y2="121.165"
   id="line5580" />
<line
   fill="none"
   stroke="#FFFFFF"
   stroke-width="2"
   stroke-miterlimit="10"
   x1="86.197"
   y1="102.517"
   x2="98.347"
   y2="112.895"
   id="line5582" />
<line
   fill="none"
   stroke="#FFFFFF"
   stroke-width="2"
   stroke-miterlimit="10"
   x1="50.697"
   y1="211.777"
   x2="66.627"
   y2="210.523"
   id="line5584" />
<line
   fill="none"
   stroke="#FFFFFF"
   stroke-width="2"
   stroke-miterlimit="10"
   x1="52.083"
   y1="223.481"
   x2="67.866"
   y2="220.98"
   id="line5586" />
<line
   fill="none"
   stroke="#FFFFFF"
   stroke-width="2"
   stroke-miterlimit="10"
   x1="54.382"
   y1="235.041"
   x2="69.92"
   y2="231.309"
   id="line5588" />
<line
   fill="none"
   stroke="#FFFFFF"
   stroke-width="2"
   stroke-miterlimit="10"
   x1="57.582"
   y1="246.384"
   x2="72.779"
   y2="241.444"
   id="line5590" />
<line
   fill="none"
   stroke="#FFFFFF"
   stroke-width="2"
   stroke-miterlimit="10"
   x1="61.661"
   y1="257.441"
   x2="76.423"
   y2="251.324"
   id="line5592" />
<line
   fill="none"
   stroke="#FFFFFF"
   stroke-width="2"
   stroke-miterlimit="10"
   x1="66.595"
   y1="268.144"
   x2="80.833"
   y2="260.887"
   id="line5594" />
<line
   fill="none"
   stroke="#FFFFFF"
   stroke-width="2"
   stroke-miterlimit="10"
   x1="72.354"
   y1="278.427"
   x2="85.978"
   y2="270.075"
   id="line5596" />
<line
   fill="none"
   stroke="#FFFFFF"
   stroke-width="2"
   stroke-miterlimit="10"
   x1="78.902"
   y1="288.226"
   x2="91.829"
   y2="278.831"
   id="line5598" />
<line
   fill="none"
   stroke="#FFFFFF"
   stroke-width="2"
   stroke-miterlimit="10"
   x1="86.199"
   y1="297.481"
   x2="98.348"
   y2="287.101"
   id="line5600" />
<line
   fill="none"
   stroke="#FFFFFF"
   stroke-width="2"
   stroke-miterlimit="10"
   x1="112.11"
   y1="321.432"
   x2="121.5"
   y2="308.502"
   id="line5602" />
<line
   fill="none"
   stroke="#FFFFFF"
   stroke-width="2"
   stroke-miterlimit="10"
   x1="132.192"
   y1="333.738"
   x2="139.444"
   y2="319.499"
   id="line5604" />
<line
   fill="none"
   stroke="#FFFFFF"
   stroke-width="2"
   stroke-miterlimit="10"
   x1="153.952"
   y1="342.751"
   x2="158.887"
   y2="327.553"
   id="line5606" />
<line
   fill="none"
   stroke="#FFFFFF"
   stroke-width="2"
   stroke-miterlimit="10"
   x1="176.853"
   y1="348.25"
   x2="179.351"
   y2="332.466"
   id="line5608" />
<line
   fill="none"
   stroke="#FFFFFF"
   stroke-width="2"
   stroke-miterlimit="10"
   x1="223.814"
   y1="348.25"
   x2="221.312"
   y2="332.467"
   id="line5610" />
<line
   fill="none"
   stroke="#FFFFFF"
   stroke-width="2"
   stroke-miterlimit="10"
   x1="246.716"
   y1="342.751"
   x2="241.776"
   y2="327.555"
   id="line5612" />
<line
   fill="none"
   stroke="#FFFFFF"
   stroke-width="2"
   stroke-miterlimit="10"
   x1="268.476"
   y1="333.738"
   x2="261.219"
   y2="319.501"
   id="line5614" />
<line
   fill="none"
   stroke="#FFFFFF"
   stroke-width="2"
   stroke-miterlimit="10"
   x1="288.558"
   y1="321.432"
   x2="279.164"
   y2="308.506"
   id="line5616" />
<line
   fill="none"
   stroke="#FFFFFF"
   stroke-width="2"
   stroke-miterlimit="10"
   x1="321.764"
   y1="288.227"
   x2="308.834"
   y2="278.836"
   id="line5618" />
<line
   fill="none"
   stroke="#FFFFFF"
   stroke-width="2"
   stroke-miterlimit="10"
   x1="334.071"
   y1="268.145"
   x2="319.832"
   y2="260.892"
   id="line5620" />
<line
   fill="none"
   stroke="#FFFFFF"
   stroke-width="2"
   stroke-miterlimit="10"
   x1="343.084"
   y1="246.385"
   x2="327.886"
   y2="241.449"
   id="line5622" />
<line
   fill="none"
   stroke="#FFFFFF"
   stroke-width="2"
   stroke-miterlimit="10"
   x1="343.085"
   y1="153.621"
   x2="327.888"
   y2="158.561"
   id="line5624" />
<line
   fill="none"
   stroke="#FFFFFF"
   stroke-width="2"
   stroke-miterlimit="10"
   x1="334.072"
   y1="131.861"
   x2="319.834"
   y2="139.117"
   id="line5626" />
<line
   fill="none"
   stroke="#FFFFFF"
   stroke-width="2"
   stroke-miterlimit="10"
   x1="321.765"
   y1="111.778"
   x2="308.838"
   y2="121.173"
   id="line5628" />
<line
   fill="none"
   stroke="#FFFFFF"
   stroke-width="2"
   stroke-miterlimit="10"
   x1="288.559"
   y1="78.572"
   x2="279.168"
   y2="91.502"
   id="line5630" />
<line
   fill="none"
   stroke="#FFFFFF"
   stroke-width="2"
   stroke-miterlimit="10"
   x1="268.477"
   y1="66.266"
   x2="261.225"
   y2="80.505"
   id="line5632" />
<line
   fill="none"
   stroke="#FFFFFF"
   stroke-width="2"
   stroke-miterlimit="10"
   x1="246.717"
   y1="57.253"
   x2="241.782"
   y2="72.451"
   id="line5634" />
<line
   fill="none"
   stroke="#FFFFFF"
   stroke-width="2"
   stroke-miterlimit="10"
   x1="223.815"
   y1="51.754"
   x2="221.318"
   y2="67.538"
   id="line5636" />
<line
   fill="none"
   stroke="#FFFFFF"
   stroke-width="2"
   stroke-miterlimit="10"
   x1="176.855"
   y1="51.754"
   x2="179.357"
   y2="67.537"
   id="line5638" />
<line
   fill="none"
   stroke="#FFFFFF"
   stroke-width="2"
   stroke-miterlimit="10"
   x1="153.953"
   y1="57.252"
   x2="158.893"
   y2="72.449"
   id="line5640" />
<line
   fill="none"
   stroke="#FFFFFF"
   stroke-width="2"
   stroke-miterlimit="10"
   x1="132.193"
   y1="66.266"
   x2="139.45"
   y2="80.502"
   id="line5642" />
<line
   fill="none"
   stroke="#FFFFFF"
   stroke-width="2"
   stroke-miterlimit="10"
   x1="112.111"
   y1="78.572"
   x2="121.505"
   y2="91.498"
   id="line5644" />
<g
   display="none"
   filter="url(#AI_Shadow_1)"
   id="g5650">
	<path
   display="inline"
   fill="#232323"
   d="M200.333,33.5c-91.956,0-166.5,74.544-166.5,166.5s74.544,166.5,166.5,166.5   c91.957,0,166.5-74.544,166.5-166.5S292.29,33.5,200.333,33.5z M200.667,350.099c-82.714,0-149.767-67.053-149.767-149.767   c0-82.713,67.053-149.767,149.767-149.767s149.767,67.053,149.767,149.767C350.433,283.046,283.38,350.099,200.667,350.099z"
   id="path5646" />
	<path
   display="inline"
   fill="none"
   stroke="#353535"
   stroke-width="1.3"
   stroke-miterlimit="10"
   d="M200.333,33.5   c-91.956,0-166.5,74.544-166.5,166.5s74.544,166.5,166.5,166.5c91.957,0,166.5-74.544,166.5-166.5S292.29,33.5,200.333,33.5z    M200.667,350.099c-82.714,0-149.767-67.053-149.767-149.767c0-82.713,67.053-149.767,149.767-149.767   s149.767,67.053,149.767,149.767C350.433,283.046,283.38,350.099,200.667,350.099z"
   id="path5648" />
</g>
<path
   fill="none"
   stroke="#FFFFFF"
   stroke-width="2"
   stroke-miterlimit="10"
   d="M337.011,178.353c0,0,3,8.314,3,21.98  c0,13.167-3,21.315-3,21.315"
   id="path5652" />
<text
   transform="matrix(1 0 0 1 83.1968 208.1665)"
   fill="#FFFFFF"
   stroke="#FFFFFF"
   stroke-miterlimit="10"
   font-family="sans-serif"
   font-size="25"
   id="text5654">0</text>


<path
   fill="none"
   stroke="#FFFFFF"
   stroke-width="2"
   stroke-miterlimit="10"
   d="M121.417,181.292h-36.25  c0,0,0.342-4.491,2.306-11.307c1.694-5.881,3.944-10.068,3.944-10.068"
   id="path5656" />
<polygon
   fill="#FFFFFF"
   stroke="#FFFFFF"
   stroke-miterlimit="10"
   points="92.042,158.554 88.167,160.792 92.813,162.73 "
   id="polygon5658" />
<path
   fill="none"
   stroke="#FFFFFF"
   stroke-width="2"
   stroke-miterlimit="10"
   d="M121.417,218.708h-36.25  c0,0,0.342,4.491,2.306,11.307c1.694,5.881,3.944,10.068,3.944,10.068"
   id="path5660" />
<polygon
   fill="#FFFFFF"
   stroke="#FFFFFF"
   stroke-miterlimit="10"
   points="92.042,241.446 88.167,239.208 92.813,237.27 "
   id="polygon5662" />
<text
   transform="matrix(1 0 0 1 125.0005 184.6665)"
   fill="#FFFFFF"
   stroke="#FFFFFF"
   stroke-width="0.5"
   stroke-miterlimit="10"
   font-family="sans-serif"
   font-size="10"
   id="text5664">UP</text>


<text
   transform="matrix(1 0 0 1 125.0005 222.6665)"
   fill="#FFFFFF"
   stroke="#FFFFFF"
   stroke-width="0.5"
   stroke-miterlimit="10"
   font-family="sans-serif"
   font-size="10"
   id="text5666">DOWN</text>


<text
   transform="translate(193.6592,102.1489)"
   stroke-miterlimit="10"
   font-size="25"
   id="text5668"
   style="font-size:25px;font-family:sans-serif;fill:#ffffff;stroke:#ffffff;stroke-width:1.5;stroke-miterlimit:10">2</text>


<text
   transform="translate(192.6592,316.4985)"
   stroke-miterlimit="10"
   font-size="25"
   id="text5670"
   style="font-size:25px;font-family:sans-serif;fill:#ffffff;stroke:#ffffff;stroke-width:1.5;stroke-miterlimit:10">2</text>


<text
   transform="translate(112.1099,131.8608)"
   stroke-miterlimit="10"
   font-size="25"
   id="text5672"
   style="font-size:25px;font-family:sans-serif;fill:#ffffff;stroke:#ffffff;stroke-miterlimit:10">1</text>


<text
   transform="translate(112.1108,283.5313)"
   stroke-miterlimit="10"
   font-size="25"
   id="text5674"
   style="font-size:25px;font-family:sans-serif;fill:#ffffff;stroke:#ffffff;stroke-miterlimit:10">1</text>


<text
   transform="translate(258.8477,135.4829)"
   id="text5680"><tspan
     x="10.355"
     y="0"
     stroke-miterlimit="10"
     font-size="25"
     id="tspan5678"
     style="font-size:25px;font-family:sans-serif;fill:#ffffff;stroke:#ffffff;stroke-miterlimit:10">3</tspan></text>


<text
   transform="translate(261.2246,281.8164)"
   id="text5686"><tspan
     x="0"
     y="0"
     stroke-miterlimit="10"
     font-size="25"
     letter-spacing="-3"
     id="tspan5682"
     style="font-size:25px;font-family:sans-serif;letter-spacing:-3;fill:#ffffff;stroke:#ffffff;stroke-miterlimit:10">3</tspan></text>


<text
   transform="translate(304.8989,208.5229)"
   stroke-miterlimit="10"
   font-size="25"
   letter-spacing="-3"
   id="text5688"
   style="font-size:25px;font-family:sans-serif;letter-spacing:-3;fill:#ffffff;stroke:#ffffff;stroke-miterlimit:10">4</text>


<text
   transform="matrix(1 0 0 1 143.4497 165.6895)"
   fill="#FFFFFF"
   stroke="#FFFFFF"
   stroke-width="0.5"
   stroke-miterlimit="10"
   font-family="sans-serif"
   font-size="14"
   id="text5690">VERTICAL SPEED</text>


<text
   stroke-miterlimit="10"
   font-size="14"
   id="text5692"
   x="148.44971"
   y="242.35789"
   style="font-style:normal;font-variant:normal;font-weight:normal;font-stretch:normal;font-size:14px;font-family:sans-serif;-inkscape-font-specification:'sans-serif, Normal';font-variant-ligatures:normal;font-variant-caps:normal;font-variant-numeric:normal;font-feature-settings:normal;text-align:start;writing-mode:lr-tb;text-anchor:start;fill:#ffffff;stroke:#ffffff;stroke-width:0.5;stroke-miterlimit:10"><tspan
     sodipodi:role="line"
     id="tspan5703"
     x="148.44971"
     y="242.35789">100FT PER SEC</tspan></text>


</svg>